<svg xmlns="http://www.w3.org/2000/svg" width="40.5" height="40.571" viewBox="0 0 40.5 40.571">
  <g id="noun_calender_1012261" transform="translate(-5.75 -5.707)">
    <g id="Group_96" data-name="Group 96" transform="translate(6 5.97)">
      <path id="Path_87" data-name="Path 87" d="M16.717,958.378a.91.91,0,0,0-.81.924v2.667H11.078A5.108,5.108,0,0,0,6,967.044V993.3a5.108,5.108,0,0,0,5.085,5.085H40.927A5.1,5.1,0,0,0,46,993.3V972.575a.911.911,0,0,0,0-.1V967.05a5.1,5.1,0,0,0-5.072-5.085h-5V959.3a.91.91,0,1,0-1.817,0v2.667H17.724V959.3a.91.91,0,0,0-.924-.923h-.083Zm-5.638,5.4h4.828v2.667a.91.91,0,0,0,1.817,0v-2.667H34.115v2.667a.91.91,0,0,0,1.817,0v-2.667h5a3.264,3.264,0,0,1,3.251,3.268v4.614H7.811v-4.615a3.274,3.274,0,0,1,3.268-3.268Zm-3.268,9.7H44.155V993.3a3.264,3.264,0,0,1-3.251,3.268H11.078A3.274,3.274,0,0,1,7.811,993.3Z" transform="translate(-6 -958.332)" fill="#fff" stroke="#fff" stroke-width="0.5" fill-rule="evenodd"/>
    </g>
  </g>
</svg>
