<svg xmlns="http://www.w3.org/2000/svg" width="25.146" height="23" viewBox="0 0 25.146 23">
  <g id="noun_Heart_1088685" transform="translate(-4.976 -8.791)">
    <g id="Group_128" data-name="Group 128" transform="translate(4.976 8.79)">
      <g id="Group_127" data-name="Group 127">
        <path id="Path_88" data-name="Path 88" d="M17.57,31.79a.8.8,0,0,1-.586-.251c-.056-.056-.307-.279-.586-.53a86.776,86.776,0,0,1-9.182-9.238C4.871,18.785,3.839,14.291,6.769,11a6.578,6.578,0,0,1,4.745-2.2,9.048,9.048,0,0,1,6.056,2.261,9.19,9.19,0,0,1,6.056-2.261A6.421,6.421,0,0,1,28.371,11h0c2.875,3.237,1.842,7.759-.447,10.773a73.7,73.7,0,0,1-9.21,9.266c-.279.223-.53.447-.586.5A.744.744,0,0,1,17.57,31.79ZM11.737,10.356h-.2a4.891,4.891,0,0,0-3.6,1.675c-2.344,2.623-1.423,6.308.53,8.791a91.541,91.541,0,0,0,8.987,9.043l.112.112a.385.385,0,0,1,.112-.084,76.1,76.1,0,0,0,8.987-9.043c1.758-2.344,2.958-6.028.53-8.791h0a4.994,4.994,0,0,0-3.6-1.675,7.589,7.589,0,0,0-5.442,2.289.826.826,0,0,1-1.144,0A7.771,7.771,0,0,0,11.737,10.356Z" transform="translate(-4.976 -8.79)" fill="#ff4646"/>
      </g>
    </g>
  </g>
</svg>
