<svg xmlns="http://www.w3.org/2000/svg" width="39.834" height="39.835" viewBox="0 0 39.834 39.835">
  <g id="noun_Target_2620665" transform="translate(-5 -5)">
    <path id="Path_82" data-name="Path 82" d="M5,26.038A18.783,18.783,0,0,1,33.313,9.84a3.333,3.333,0,0,0-.112.906l.033,1.786-1.522,1.522a14.388,14.388,0,1,0,4.068,4.068L37.3,16.6l1.849.033a3.371,3.371,0,0,0,.844-.11A18.792,18.792,0,1,1,5,26.038Zm18.8-6.346a6.314,6.314,0,0,1,1.963.314L29.1,16.667a10.786,10.786,0,1,0,4.068,4.068l-3.339,3.339A6.344,6.344,0,1,1,23.8,19.692Zm1.1,3.686a2.878,2.878,0,1,0,1.565,1.565L36.582,14.816l2.539.047a1.59,1.59,0,0,0,1.154-.466l4.534-4.534a.085.085,0,0,0-.052-.144l-4.01-.382a.277.277,0,0,1-.25-.25l-.382-4.011a.085.085,0,0,0-.144-.052L35.436,9.559a1.59,1.59,0,0,0-.466,1.154l.047,2.539Z" fill="#199db8"/>
  </g>
</svg>
